<?xml version="1.0" standalone="no"?><!DOCTYPE svg PUBLIC "-//W3C//DTD SVG 1.1//EN" "http://www.w3.org/Graphics/SVG/1.1/DTD/svg11.dtd"><svg xmlns:xlink="http://www.w3.org/1999/xlink" version="1.1" class="highcharts-root" style="font-family:&quot;Lucida Grande&quot;, &quot;Lucida Sans Unicode&quot;, Arial, Helvetica, sans-serif;font-size:12px;" xmlns="http://www.w3.org/2000/svg" width="600" height="400" viewBox="0 0 600 400"><desc>Created with Highcharts 9.3.3</desc><defs><clipPath id="highcharts-eveu4ha-373-"><rect x="0" y="0" width="189" height="481" fill="none"></rect></clipPath><clipPath id="highcharts-eveu4ha-379-"><rect x="0" y="0" width="189" height="481" fill="none"></rect></clipPath></defs><rect fill="#ffffff" class="highcharts-background" x="0" y="0" width="600" height="400" rx="0" ry="0"></rect><rect fill="none" class="highcharts-plot-background" x="69" y="98" width="481" height="189"></rect><g class="highcharts-pane-group" data-z-index="0"></g><g class="highcharts-plot-lines-0" data-z-index="0"><path fill="none" class="highcharts-plot-line "></path></g><g class="highcharts-grid highcharts-xaxis-grid" data-z-index="1"><path fill="none" stroke-dasharray="none" data-z-index="1" class="highcharts-grid-line" d="M 69 136.5 L 550 136.5" opacity="1"></path><path fill="none" stroke-dasharray="none" data-z-index="1" class="highcharts-grid-line" d="M 69 174.5 L 550 174.5" opacity="1"></path><path fill="none" stroke-dasharray="none" data-z-index="1" class="highcharts-grid-line" d="M 69 211.5 L 550 211.5" opacity="1"></path><path fill="none" stroke-dasharray="none" data-z-index="1" class="highcharts-grid-line" d="M 69 249.5 L 550 249.5" opacity="1"></path><path fill="none" stroke-dasharray="none" data-z-index="1" class="highcharts-grid-line" d="M 69 287.5 L 550 287.5" opacity="1"></path><path fill="none" stroke-dasharray="none" data-z-index="1" class="highcharts-grid-line" d="M 69 98.5 L 550 98.5" opacity="1"></path></g><g class="highcharts-grid highcharts-yaxis-grid" data-z-index="1"><path fill="none" stroke="#e6e6e6" stroke-width="1" stroke-dasharray="none" data-z-index="1" class="highcharts-grid-line" d="M 68.5 98 L 68.5 287" opacity="1"></path><path fill="none" stroke="#e6e6e6" stroke-width="1" stroke-dasharray="none" data-z-index="1" class="highcharts-grid-line" d="M 148.5 98 L 148.5 287" opacity="1"></path><path fill="none" stroke="#e6e6e6" stroke-width="1" stroke-dasharray="none" data-z-index="1" class="highcharts-grid-line" d="M 228.5 98 L 228.5 287" opacity="1"></path><path fill="none" stroke="#e6e6e6" stroke-width="1" stroke-dasharray="none" data-z-index="1" class="highcharts-grid-line" d="M 309.5 98 L 309.5 287" opacity="1"></path><path fill="none" stroke="#e6e6e6" stroke-width="1" stroke-dasharray="none" data-z-index="1" class="highcharts-grid-line" d="M 389.5 98 L 389.5 287" opacity="1"></path><path fill="none" stroke="#e6e6e6" stroke-width="1" stroke-dasharray="none" data-z-index="1" class="highcharts-grid-line" d="M 469.5 98 L 469.5 287" opacity="1"></path><path fill="none" stroke="#e6e6e6" stroke-width="1" stroke-dasharray="none" data-z-index="1" class="highcharts-grid-line" d="M 550.5 98 L 550.5 287" opacity="1"></path></g><rect fill="none" class="highcharts-plot-border" data-z-index="1" x="69" y="98" width="481" height="189"></rect><g class="highcharts-axis highcharts-xaxis" data-z-index="2"><path fill="none" class="highcharts-axis-line" stroke="#ccd6eb" stroke-width="1" data-z-index="7" d="M 68.5 98 L 68.5 287"></path></g><g class="highcharts-axis highcharts-yaxis" data-z-index="2"><text x="309.5" data-z-index="7" text-anchor="middle" transform="translate(0,0)" class="highcharts-axis-title" style="color:#666666;fill:#666666;" y="326">% of Households</text><path fill="none" class="highcharts-axis-line" data-z-index="7" d="M 69 287 L 550 287"></path></g><g class="highcharts-series-group" data-z-index="3"><g class="highcharts-series highcharts-series-0 highcharts-bar-series" data-z-index="0.1" opacity="1" transform="translate(550,287) rotate(90) scale(-1,1) scale(1 1)" clip-path="url(#highcharts-eveu4ha-379-)"><rect x="160.5" y="80.5" width="19" height="82" fill="#90989F" stroke="#ffffff" stroke-width="1" opacity="1" class="highcharts-point"></rect><rect x="122.5" y="80.5" width="19" height="39" fill="#90989F" stroke="#ffffff" stroke-width="1" opacity="1" class="highcharts-point"></rect><rect x="84.5" y="80.5" width="19" height="27" fill="#90989F" stroke="#ffffff" stroke-width="1" opacity="1" class="highcharts-point"></rect><rect x="47.5" y="80.5" width="19" height="27" fill="#90989F" stroke="#ffffff" stroke-width="1" opacity="1" class="highcharts-point"></rect><rect x="9.5" y="80.5" width="19" height="12" fill="#90989F" stroke="#ffffff" stroke-width="1" opacity="1" class="highcharts-point"></rect></g><g class="highcharts-markers highcharts-series-0 highcharts-bar-series" data-z-index="0.1" opacity="1" transform="translate(550,287) rotate(90) scale(-1,1) scale(1 1)" clip-path="none"></g><g class="highcharts-series highcharts-series-1 highcharts-bar-series" data-z-index="0.1" opacity="1" transform="translate(550,287) rotate(90) scale(-1,1) scale(1 1)" clip-path="url(#highcharts-eveu4ha-379-)"><rect x="160.5" y="162.5" width="19" height="97" fill="#3D5999" stroke="#ffffff" stroke-width="1" opacity="1" class="highcharts-point"></rect><rect x="122.5" y="119.5" width="19" height="65" fill="#3D5999" stroke="#ffffff" stroke-width="1" opacity="1" class="highcharts-point"></rect><rect x="84.5" y="107.5" width="19" height="49" fill="#3D5999" stroke="#ffffff" stroke-width="1" opacity="1" class="highcharts-point"></rect><rect x="47.5" y="107.5" width="19" height="48" fill="#3D5999" stroke="#ffffff" stroke-width="1" opacity="1" class="highcharts-point"></rect><rect x="9.5" y="92.5" width="19" height="38" fill="#3D5999" stroke="#ffffff" stroke-width="1" opacity="1" class="highcharts-point"></rect></g><g class="highcharts-markers highcharts-series-1 highcharts-bar-series" data-z-index="0.1" opacity="1" transform="translate(550,287) rotate(90) scale(-1,1) scale(1 1)" clip-path="none"></g><g class="highcharts-series highcharts-series-2 highcharts-bar-series" data-z-index="0.1" opacity="1" transform="translate(550,287) rotate(90) scale(-1,1) scale(1 1)" clip-path="url(#highcharts-eveu4ha-379-)"><rect x="160.5" y="259.5" width="19" height="149" fill="#C6CC5C" stroke="#ffffff" stroke-width="1" opacity="1" class="highcharts-point"></rect><rect x="122.5" y="184.5" width="19" height="159" fill="#C6CC5C" stroke="#ffffff" stroke-width="1" opacity="1" class="highcharts-point"></rect><rect x="84.5" y="156.5" width="19" height="128" fill="#C6CC5C" stroke="#ffffff" stroke-width="1" opacity="1" class="highcharts-point"></rect><rect x="47.5" y="155.5" width="19" height="123" fill="#C6CC5C" stroke="#ffffff" stroke-width="1" opacity="1" class="highcharts-point"></rect><rect x="9.5" y="130.5" width="19" height="120" fill="#C6CC5C" stroke="#ffffff" stroke-width="1" opacity="1" class="highcharts-point"></rect></g><g class="highcharts-markers highcharts-series-2 highcharts-bar-series" data-z-index="0.1" opacity="1" transform="translate(550,287) rotate(90) scale(-1,1) scale(1 1)" clip-path="none"></g><g class="highcharts-series highcharts-series-3 highcharts-bar-series" data-z-index="0.1" opacity="1" transform="translate(550,287) rotate(90) scale(-1,1) scale(1 1)" clip-path="url(#highcharts-eveu4ha-379-)"><rect x="160.5" y="408.5" width="19" height="59" fill="#0091AB" stroke="#ffffff" stroke-width="1" opacity="1" class="highcharts-point"></rect><rect x="122.5" y="343.5" width="19" height="100" fill="#0091AB" stroke="#ffffff" stroke-width="1" opacity="1" class="highcharts-point"></rect><rect x="84.5" y="284.5" width="19" height="125" fill="#0091AB" stroke="#ffffff" stroke-width="1" opacity="1" class="highcharts-point"></rect><rect x="47.5" y="278.5" width="19" height="124" fill="#0091AB" stroke="#ffffff" stroke-width="1" opacity="1" class="highcharts-point"></rect><rect x="9.5" y="250.5" width="19" height="137" fill="#0091AB" stroke="#ffffff" stroke-width="1" opacity="1" class="highcharts-point"></rect></g><g class="highcharts-markers highcharts-series-3 highcharts-bar-series" data-z-index="0.1" opacity="1" transform="translate(550,287) rotate(90) scale(-1,1) scale(1 1)" clip-path="none"></g><g class="highcharts-series highcharts-series-4 highcharts-bar-series" data-z-index="0.1" opacity="1" transform="translate(550,287) rotate(90) scale(-1,1) scale(1 1)" clip-path="url(#highcharts-eveu4ha-379-)"><rect x="160.5" y="467.5" width="19" height="8" fill="#90989F" stroke="#ffffff" stroke-width="1" opacity="1" class="highcharts-point"></rect><rect x="122.5" y="443.5" width="19" height="26" fill="#90989F" stroke="#ffffff" stroke-width="1" opacity="1" class="highcharts-point"></rect><rect x="84.5" y="409.5" width="19" height="51" fill="#90989F" stroke="#ffffff" stroke-width="1" opacity="1" class="highcharts-point"></rect><rect x="47.5" y="402.5" width="19" height="48" fill="#90989F" stroke="#ffffff" stroke-width="1" opacity="1" class="highcharts-point"></rect><rect x="9.5" y="387.5" width="19" height="52" fill="#90989F" stroke="#ffffff" stroke-width="1" opacity="1" class="highcharts-point"></rect></g><g class="highcharts-markers highcharts-series-4 highcharts-bar-series" data-z-index="0.1" opacity="1" transform="translate(550,287) rotate(90) scale(-1,1) scale(1 1)" clip-path="none"></g><g class="highcharts-series highcharts-series-5 highcharts-bar-series" data-z-index="0.1" opacity="1" transform="translate(550,287) rotate(90) scale(-1,1) scale(1 1)" clip-path="url(#highcharts-eveu4ha-379-)"><rect x="160.5" y="475.5" width="19" height="6" fill="#3D5999" stroke="#ffffff" stroke-width="1" opacity="1" class="highcharts-point"></rect><rect x="122.5" y="469.5" width="19" height="12" fill="#3D5999" stroke="#ffffff" stroke-width="1" opacity="1" class="highcharts-point"></rect><rect x="84.5" y="460.5" width="19" height="21" fill="#3D5999" stroke="#ffffff" stroke-width="1" opacity="1" class="highcharts-point"></rect><rect x="47.5" y="450.5" width="19" height="31" fill="#3D5999" stroke="#ffffff" stroke-width="1" opacity="1" class="highcharts-point"></rect><rect x="9.5" y="439.5" width="19" height="42" fill="#3D5999" stroke="#ffffff" stroke-width="1" opacity="1" class="highcharts-point"></rect></g><g class="highcharts-markers highcharts-series-5 highcharts-bar-series" data-z-index="0.1" opacity="1" transform="translate(550,287) rotate(90) scale(-1,1) scale(1 1)" clip-path="none"></g></g><text x="300" text-anchor="middle" class="highcharts-title" data-z-index="4" style="color:#333333;font-size:14px;text-align:center;fill:#333333;" y="21">Figure 3.9 Level of Difficulty in Making Ends Meet by Household Disposable<tspan dy="17" x="300">​</tspan>Income Quintile, 2021</text><text x="0" text-anchor="start" class="highcharts-subtitle" data-z-index="4" style="color:#666666;fill:#666666;" y="385"></text><text x="10" text-anchor="start" class="highcharts-caption" data-z-index="4" style="color:#666666;fill:#666666;" y="397"></text><g class="highcharts-legend highcharts-no-tooltip" data-z-index="7" transform="translate(61,344)"><rect fill="none" class="highcharts-legend-box" rx="0" ry="0" x="0" y="0" width="477" height="41" visibility="visible"></rect><g data-z-index="1"><g><g class="highcharts-legend-item highcharts-bar-series highcharts-color-undefined highcharts-series-5" data-z-index="1" transform="translate(8,3)"><text x="21" style="color:#333333;cursor:pointer;font-size:12px;font-weight:bold;fill:#333333;" text-anchor="start" data-z-index="2" y="15">With great difficulty</text><rect x="2" y="4" width="12" height="12" fill="#3D5999" rx="6" ry="6" class="highcharts-point" data-z-index="3"></rect></g><g class="highcharts-legend-item highcharts-bar-series highcharts-color-undefined highcharts-series-4" data-z-index="1" transform="translate(168.505859375,3)"><text x="21" y="15" style="color:#333333;cursor:pointer;font-size:12px;font-weight:bold;fill:#333333;" text-anchor="start" data-z-index="2">With difficulty</text><rect x="2" y="4" width="12" height="12" fill="#90989F" rx="6" ry="6" class="highcharts-point" data-z-index="3"></rect></g><g class="highcharts-legend-item highcharts-bar-series highcharts-color-undefined highcharts-series-3" data-z-index="1" transform="translate(329.01171875,3)"><text x="21" y="15" style="color:#333333;cursor:pointer;font-size:12px;font-weight:bold;fill:#333333;" text-anchor="start" data-z-index="2">With some difficulty</text><rect x="2" y="4" width="12" height="12" fill="#0091AB" rx="6" ry="6" class="highcharts-point" data-z-index="3"></rect></g><g class="highcharts-legend-item highcharts-bar-series highcharts-color-undefined highcharts-series-2" data-z-index="1" transform="translate(8,18)"><text x="21" y="15" style="color:#333333;cursor:pointer;font-size:12px;font-weight:bold;fill:#333333;" text-anchor="start" data-z-index="2">Fairly easily</text><rect x="2" y="4" width="12" height="12" fill="#C6CC5C" rx="6" ry="6" class="highcharts-point" data-z-index="3"></rect></g><g class="highcharts-legend-item highcharts-bar-series highcharts-color-undefined highcharts-series-1" data-z-index="1" transform="translate(168.505859375,18)"><text x="21" y="15" style="color:#333333;cursor:pointer;font-size:12px;font-weight:bold;fill:#333333;" text-anchor="start" data-z-index="2">Easily</text><rect x="2" y="4" width="12" height="12" fill="#3D5999" rx="6" ry="6" class="highcharts-point" data-z-index="3"></rect></g><g class="highcharts-legend-item highcharts-bar-series highcharts-color-undefined highcharts-series-0" data-z-index="1" transform="translate(329.01171875,18)"><text x="21" y="15" style="color:#333333;cursor:pointer;font-size:12px;font-weight:bold;fill:#333333;" text-anchor="start" data-z-index="2">Very easily</text><rect x="2" y="4" width="12" height="12" fill="#90989F" rx="6" ry="6" class="highcharts-point" data-z-index="3"></rect></g></g></g></g><g class="highcharts-axis-labels highcharts-xaxis-labels" data-z-index="7"><text x="56.35702260395516" style="color:#666666;cursor:default;font-size:10px;use-h-t-m-l:true;fill:#666666;" text-anchor="end" transform="translate(0,0) rotate(-45 56.35702260395516 117)" y="117" opacity="1">Quintile 5</text><text x="56.35702260395516" style="color:#666666;cursor:default;font-size:10px;use-h-t-m-l:true;fill:#666666;" text-anchor="end" transform="translate(0,0) rotate(-45 56.35702260395516 154)" y="154" opacity="1">Quintile 4</text><text x="56.35702260395516" style="color:#666666;cursor:default;font-size:10px;use-h-t-m-l:true;fill:#666666;" text-anchor="end" transform="translate(0,0) rotate(-45 56.35702260395516 192)" y="192" opacity="1">Quintile 3</text><text x="56.35702260395516" style="color:#666666;cursor:default;font-size:10px;use-h-t-m-l:true;fill:#666666;" text-anchor="end" transform="translate(0,0) rotate(-45 56.35702260395516 230)" y="230" opacity="1">Quintile 2</text><text x="56.35702260395516" style="color:#666666;cursor:default;font-size:10px;use-h-t-m-l:true;fill:#666666;" text-anchor="end" transform="translate(0,0) rotate(-45 56.35702260395516 268)" y="268" opacity="1">Quintile 1</text></g><g class="highcharts-axis-labels highcharts-yaxis-labels" data-z-index="7"><text x="69" style="color:#666666;cursor:default;font-size:11px;fill:#666666;" text-anchor="middle" transform="translate(0,0)" y="306" opacity="1">0</text><text x="149.16666666667" style="color:#666666;cursor:default;font-size:11px;fill:#666666;" text-anchor="middle" transform="translate(0,0)" y="306" opacity="1">20</text><text x="229.33333333333" style="color:#666666;cursor:default;font-size:11px;fill:#666666;" text-anchor="middle" transform="translate(0,0)" y="306" opacity="1">40</text><text x="309.5" style="color:#666666;cursor:default;font-size:11px;fill:#666666;" text-anchor="middle" transform="translate(0,0)" y="306" opacity="1">60</text><text x="389.66666666667" style="color:#666666;cursor:default;font-size:11px;fill:#666666;" text-anchor="middle" transform="translate(0,0)" y="306" opacity="1">80</text><text x="469.83333333333" style="color:#666666;cursor:default;font-size:11px;fill:#666666;" text-anchor="middle" transform="translate(0,0)" y="306" opacity="1">100</text><text x="550" style="color:#666666;cursor:default;font-size:11px;fill:#666666;" text-anchor="middle" transform="translate(0,0)" y="306" opacity="1">120</text></g><text x="590" class="highcharts-credits" text-anchor="end" data-z-index="8" style="cursor:context-menu;color:#999999;font-size:9px;fill:#999999;" y="395">Source: CSO Ireland</text></svg>